PathFileType	4	(X/Y/Z)	55_2_53_p0_0-287_filt_butterworth.trc
DataRate	CameraRate	NumFrames	NumMarkers	Units	OrigDataRate	OrigDataStartFrame	OrigNumFrames
60.0	60.0	5	27	m	60.0	179	287
Frame#	Time	RHip			RKnee			RAnkle			RBigToe			RSmallToe			RHeel			LHip			LKnee			LAnkle			LBigToe			LSmallToe			LHeel			Neck			Head			Nose			RShoulder			RElbow			RWrist			RThumb			RIndex			RPinky			LShoulder			LElbow			LWrist			LThumb			LIndex			LPinky			
		X1	Y1	Z1	X2	Y2	Z2	X3	Y3	Z3	X4	Y4	Z4	X5	Y5	Z5	X6	Y6	Z6	X7	Y7	Z7	X8	Y8	Z8	X9	Y9	Z9	X10	Y10	Z10	X11	Y11	Z11	X12	Y12	Z12	X13	Y13	Z13	X14	Y14	Z14	X15	Y15	Z15	X16	Y16	Z16	X17	Y17	Z17	X18	Y18	Z18	X19	Y19	Z19	X20	Y20	Z20	X21	Y21	Z21	X22	Y22	Z22	X23	Y23	Z23	X24	Y24	Z24	X25	Y25	Z25	X26	Y26	Z26	X27	Y27	Z27	
179	2.9833333333333334	0.32601853143434395	0.9343584792545541	0.5322485923943799	0.3139616071439602	0.5313172527046961	0.5465911586597924	0.31415341645761896	0.09445988634491663	0.6205289596017368	0.29156258224172066	0.07602375434664822	0.4298514811206112	0.35202221713093657	0.05995564823281603	0.4636408338192477	0.30065182461475565	0.03344196208297509	0.6747990039092333	0.11510426906845288	0.9265928369648888	0.5596701712483376	0.12840039614410448	0.5217378823632179	0.5853934041801074	0.1482561955984469	0.13472123563775765	0.6108351029080948	0.12948410192861046	0.09906630164815848	0.4162922506439233	0.0812344450756309	0.08051591285718546	0.4694155704529592	0.16784544123004796	0.05814536176065511	0.6575306351968164	0.22822747975215701	1.5178985457045617	0.5301388938679068	0.2272313489959864	1.7684010776468682	0.5001101280699619	0.20846628925804767	1.6573745768559325	0.4150778787573228	0.37141735805315	1.4207087715876192	0.5143822407300397	0.38733636489056816	1.1461639880163583	0.48193599038111407	0.27854648722826514	0.9848860373337593	0.3673265722873287	0.18487773530580676	0.8978354772448545	0.3829676244480398	0.1871931923073994	0.8781033171878606	0.4007462119033581	0.21146137378943913	0.8669482017799948	0.39893955524508007	0.07416214744615178	1.4178111330107648	0.5572782582201402	0.055471091214457605	1.1839656071357127	0.4814749118328238	0.16174407695775733	0.9999519628272645	0.3765294003908278	0.21153086007157354	0.9122267636272893	0.36231776815247935	0.21366211519287592	0.8911590552233147	0.3619907233520754	0.20087210563590513	0.9002002404350186	0.37285474806986135	
180	3.0	0.32663990315094155	0.9341742197604846	0.5330374042678554	0.3158260736464888	0.5296478389296287	0.5500962676073083	0.3140564450940398	0.09466230602383034	0.6203752336555299	0.2915396449937532	0.0759659897718581	0.42987097548875797	0.351743440319756	0.060052033584458854	0.46224691337224627	0.3005686729022115	0.033508863676916835	0.6746653986170306	0.11579273465995826	0.9271710231379706	0.5585137682487812	0.12923273569403487	0.5208456233152085	0.58678147505753	0.1481037408951255	0.13447779645337612	0.6104791416279658	0.12919503880113845	0.09916522511434196	0.4160802124638224	0.0829053675345377	0.08062203463609104	0.466453308995299	0.16763769889381136	0.05853015160488373	0.6571885644832798	0.2275831918272942	1.5181360872682976	0.5327294529106095	0.2268097607548029	1.7684560833411191	0.5021431028107785	0.20832280338334197	1.6593834024954008	0.414993337356415	0.3713094850838503	1.4215722037969132	0.51422104043643	0.387314043560003	1.1461284125443363	0.481923408929208	0.2788633652145286	0.9853033791482984	0.36740769533743534	0.18534612179729215	0.8978491470504241	0.38276313197409145	0.18855752379050778	0.8785984371544665	0.40027401111782046	0.21239105530515473	0.8675139624413924	0.3989951916131143	0.07345443066457986	1.4181358993165958	0.5550090073252946	0.05549371008751693	1.184052738240358	0.48149260816404493	0.16169825000406718	1.0001715314479938	0.37689597359390326	0.2115040087618811	0.91235742739237	0.36226090784959875	0.21363122354064096	0.8910418972029247	0.362062867691177	0.20084047725844828	0.9002175782383292	0.3728197732756954	
181	3.0166666666666666	0.32722070878774745	0.9340642747180955	0.5338819619442556	0.317584540749834	0.5280559427566598	0.5534856118241159	0.31389136709915794	0.09500267348276556	0.6199616033309232	0.29145934386557154	0.07597466366106474	0.42984556134187607	0.35127366785573344	0.060434067580259127	0.45999132538982257	0.3003751970115528	0.03381357470385235	0.6743217216961512	0.11650357049763584	0.9277859896698157	0.5573661730042312	0.1300417298589014	0.5198638213780863	0.5881519560997007	0.14777426248617762	0.13445925567269118	0.6096562185917325	0.1289746948875108	0.09930473222338837	0.4158734087803123	0.08445912624266491	0.08078555570811036	0.46408673662037475	0.1673758603906727	0.05898962047930151	0.6568433587320489	0.22707874507096576	1.5182348828802548	0.534739469464943	0.22627963087649536	1.7683694637899057	0.5046228003574054	0.20883824328602918	1.6613961408105098	0.41516609665327386	0.37121033716631224	1.4222309709958034	0.5140571709267994	0.3872707704121383	1.1461126757649738	0.48189603844435963	0.2795188170362757	0.9853756265099687	0.3675657094485259	0.1860119963389359	0.8973370330825045	0.38310103227603104	0.18974677688392794	0.8789981835236329	0.3998591849444489	0.2130908054440372	0.8673493976298808	0.3989504178856833	0.07290055280813802	1.4183916578387827	0.5532223335887302	0.05552146692443802	1.1840009236151887	0.4814882989076314	0.16170684551074455	1.0004020805549285	0.3772032708581441	0.21151983620783715	0.9124547286325452	0.3622469390930526	0.21357219363787666	0.8910814065173307	0.3621324784362737	0.20076491189971624	0.900231909524205	0.37270525340246546	
182	3.033333333333333	0.3277283119018123	0.9340573819720869	0.5346976905916847	0.3191685308332488	0.5266498599547225	0.5565394221816294	0.31369163650938964	0.0953117108812995	0.6193782134216058	0.2913232198522615	0.07604719086881759	0.42978424450369407	0.3507339096308707	0.06100668779555868	0.4575143637943547	0.3000654601159001	0.03437688726491826	0.6737403633571084	0.11724111914681443	0.9283414173896729	0.5562559611116413	0.13080228266872182	0.518807146824788	0.5894769838027238	0.14727071452509627	0.13466110991004623	0.6083723291910728	0.1288198654667581	0.09950534768609692	0.4156477643900241	0.08566810946430023	0.080968686938845	0.4626613597774072	0.16710648494584646	0.0593614137834564	0.656515840997585	0.22678233448181676	1.5181595145631115	0.5358964163617496	0.22573650931924377	1.7682388848844666	0.5071087716750301	0.209670229104717	1.6633225213727685	0.4155090180076284	0.3711396582546178	1.4227055709080005	0.5139290911422519	0.38726087796852415	1.146228979213651	0.4818562037084974	0.2804167578020832	0.9852626402718149	0.3677863468109976	0.18680209958588878	0.8963510822955798	0.38421267909559564	0.19059017749471524	0.8793505251062184	0.39953619764981485	0.21344120018206914	0.8665663195977288	0.39872895979702627	0.07258012646686719	1.4185476000462012	0.5521673221513286	0.05554675864869911	1.1839325006771362	0.4814673570453793	0.16195560571835832	1.0004603146641882	0.3769684816631049	0.21156047315337478	0.9125050960174073	0.3622797823513702	0.2134681802407642	0.8912769224392669	0.3621349532895298	0.20060065501052865	0.9002449073354831	0.37247013159851977	
183	3.05	0.3281276828160875	0.9341884786721191	0.5353938065447275	0.3205572012824259	0.5254637822340481	0.5591302801135997	0.3134938145255878	0.09549549212421689	0.6188008061889515	0.29121038534541566	0.07613498270474325	0.4297266966940319	0.35022067322496186	0.06164844983371653	0.45546283606201293	0.29964511753483764	0.035165245797896344	0.6728938006445692	0.11800721762355267	0.9287522922901064	0.555207274268688	0.1314874296480183	0.517723049938892	0.5907234577970307	0.14665491333480857	0.13500198889900888	0.6067873316600454	0.12871148674806665	0.09984932932280509	0.41543607701826685	0.08636673783689547	0.0811101030638884	0.46223740290355686	0.1668476361338064	0.059587072918085765	0.6562159394214343	0.22669959398945855	1.5179884384171687	0.5361802193294579	0.22525996276496926	1.7681146926659779	0.5092372046441879	0.21032362222229087	1.6651318415171423	0.4158277646602445	0.37110746623048707	1.422987947247397	0.5138577881891051	0.387259514344048	1.1465425377731355	0.4817847935377297	0.28143395876030947	0.985120485491968	0.36807811182371203	0.18761063526941607	0.8950377300649343	0.3860258919704672	0.1910034719285384	0.8797576182588053	0.3993005481366244	0.21342789107199484	0.8654320325798611	0.39830324495695807	0.0725005191791173	1.4186049039787403	0.5518697881404228	0.05556345175514286	1.1839143414216993	0.48143449810956546	0.1624514770649171	1.0004092306965908	0.3758569583107944	0.21159888125234066	0.9125147422579788	0.3623382454288459	0.2133932053524888	0.89145821841129	0.36223319623252354	0.20047375069410264	0.9002668658241121	0.3723215438073472	
